<?xml version="1.0" standalone="no"?><svg xmlns="http://www.w3.org/2000/svg" viewBox="0 0 1440 320"><path fill="#ffc99d6e" fill-opacity="20" d="M0,32L24,26.7C48,21,96,11,144,26.7C192,43,240,85,288,101.3C336,117,384,107,432,96C480,85,528,75,576,64C624,53,672,43,720,53.3C768,64,816,96,864,90.7C912,85,960,43,1008,32C1056,21,1104,43,1152,80C1200,117,1248,171,1296,170.7C1344,171,1392,117,1416,90.7L1440,64L1440,320L1416,320C1392,320,1344,320,1296,320C1248,320,1200,320,1152,320C1104,320,1056,320,1008,320C960,320,912,320,864,320C816,320,768,320,720,320C672,320,624,320,576,320C528,320,480,320,432,320C384,320,336,320,288,320C240,320,192,320,144,320C96,320,48,320,24,320L0,320Z"></path></svg>